<svg version="1.2" xmlns="http://www.w3.org/2000/svg" viewBox="0 0 952 287" width="133" height="40">
	<title>Illustrator file</title>
	<style>
		.s0 { fill: #0031bf } 
		.s1 { fill: #000000 } 
		.s2 { fill: #ff9900 } 
	</style>
	<g id="_Artboards_">
	</g>
	<g id="Layer 1">
		<g id="&lt;Group&gt;">
			<g id="&lt;Group&gt;">
			</g>
			<g id="&lt;Group&gt;">
			</g>
		</g>
		<g id="&lt;Group&gt;">
			<g id="&lt;Group&gt;">
			</g>
		</g>
		<g id="&lt;Group&gt;">
			<g id="&lt;Group&gt;">
			</g>
		</g>
		<g id="&lt;Group&gt;">
			<g id="&lt;Group&gt;">
			</g>
		</g>
		<g id="&lt;Group&gt;">
			<g id="&lt;Group&gt;">
			</g>
			<g id="&lt;Group&gt;">
			</g>
		</g>
		<g id="&lt;Group&gt;">
			<g id="&lt;Group&gt;">
			</g>
			<g id="&lt;Group&gt;">
			</g>
		</g>
		<g id="&lt;Group&gt;">
			<g id="&lt;Group&gt;">
				<g id="&lt;Group&gt;">
				</g>
				<g id="&lt;Group&gt;">
				</g>
			</g>
			<g id="&lt;Group&gt;">
				<g id="&lt;Group&gt;">
					<g id="&lt;Group&gt;">
					</g>
					<g id="&lt;Group&gt;">
					</g>
				</g>
			</g>
		</g>
		<g id="&lt;Group&gt;">
			<g id="&lt;Group&gt;">
				<g id="&lt;Group&gt;">
				</g>
				<g id="&lt;Group&gt;">
				</g>
			</g>
			<g id="&lt;Group&gt;">
				<g id="&lt;Group&gt;">
				</g>
				<g id="&lt;Group&gt;">
				</g>
			</g>
		</g>
		<g id="&lt;Group&gt;">
			<g id="&lt;Group&gt;">
				<g id="&lt;Group&gt;">
				</g>
				<g id="&lt;Group&gt;">
				</g>
			</g>
			<g id="&lt;Group&gt;">
				<g id="&lt;Group&gt;">
				</g>
				<g id="&lt;Group&gt;">
				</g>
			</g>
			<g id="Folder 1">
				<path id="&lt;Compound Path&gt;" class="s0" d="m402.7 119.5v-0.7c0-5.8-4.8-10.6-10.6-10.6h-47c-5.8 0-10.6 4.8-10.6 10.6v0.7c0 5.8 4.8 10.6 10.6 10.6h41.7c10.8 0 20.4 4.6 27 11.9 0.5 0.5 0.9 1 1.4 1.5 5.1 6.3 8.2 14.4 8.2 23.2 0 20.2-16.4 36.6-36.6 36.6h-36.3c-20.2 0-36.6-16.4-36.6-36.6h20.7c0 8.8 7.2 15.9 15.9 15.9h36.3c8.8 0 16.1-7.1 16.1-15.9 0-8.8-7.3-15.9-16.1-15.9h-41.7c-8.5 0-16.1-3.3-21.7-8.8q-2.3-2.2-4-5c-3.5-4.9-5.5-11.1-5.5-17.7v-0.6c0-17.3 13.9-31.4 31.2-31.4h47c17.3 0 31.3 14.1 31.3 31.4v0.6z"/>
				<path id="&lt;Compound Path&gt;" class="s0" d="m750.1 87.3h-22.7l-10.6 20.7-25.3 49.8-0.5-1-24.9-48.8-10.6-20.7h-23.2l10.6 20.7 36.4 71.4 11.8 23.2z"/>
				<path id="&lt;Compound Path&gt;" class="s0" d="m760.7 203.3v-116h20.7v116z"/>
				<path id="&lt;Compound Path&gt;" class="s0" d="m762.9 62l-7.9 15.6-0.2 0.5-4.7 9.2-59 115.3-11.8-23.2 11.7-22.6 40.6-78.7 3.4-6.7 2.3-4.6 2.4-4.8z"/>
				<path id="&lt;Compound Path&gt;" class="s0" d="m914 87.3h-30.7l-32.3 29.7-15.4 14.1-17.1 15.6v-59.4h-20.7v116h20.7v-28.6l29.4-26.7 40.1 55.3h25.5l-50.2-69.4z"/>
				<path id="&lt;Path&gt;" class="s0" d="m899.1 62h43l-17.2 15.6h-184.6l7.2-15.6h145.9"/>
				<path id="&lt;Compound Path&gt;" class="s0" d="m656.5 187.8l-2.6-5.2-48.6-95.3-48.5 95.3-10.6 20.7h23.2l10.6-20.7 25.3-49.7 25.4 49.7 2.7 5.2 7.9 15.7h23.2z"/>
				<path id="&lt;Path&gt;" class="s0" d="m664.5 203.5h-84.5l7.3-15.7h69.2z"/>
				<path id="&lt;Compound Path&gt;" class="s0" d="m534.3 187.8l-2.7-5.2-48.5-95.3-48.6 95.3-10.6 20.7h23.2l10.6-20.7 25.4-49.7 25.3 49.7 2.7 5.2 7.9 15.7h23.2z"/>
				<path id="&lt;Path&gt;" class="s0" d="m542.2 203.5h-84.4l7.2-15.7h69.3z"/>
				<path id="&lt;Path&gt;" class="s0" d="m942.1 62l-17.2 15.6"/>
				<path id="&lt;Path&gt;" class="s0" d="m157.7 170.9c-0.1 1-3 12.2-4.4 17.2-0.7 2.9-1.7 6.4-2 7.8-1.9 7.6-2.9 10.8-3.7 12.2-0.8-1.4-1.8-4.6-3.7-12.2-0.3-1.4-1.2-5-2-7.8-1.3-5-4.2-16.2-4.3-17.2-0.1-0.6 0-0.9 1.2-2.4 0.9-1.1 1.9-2.3 6.7-7.9 0.9-1.1 1.8-2.1 1.9-2.3 0.1-0.1 0.1-0.2 0.2-0.2q0-0.1 0.1-0.1 0 0 0 0.1 0 0 0 0c0.1 0 0.1 0.1 0.2 0.2 0.1 0.2 1 1.2 1.9 2.3 4.8 5.6 5.8 6.8 6.7 7.9 1.1 1.5 1.3 1.9 1.2 2.4z"/>
				<path id="&lt;Path&gt;" class="s1" d="m147.7 158q-0.1 0-0.1 0.1 0-0.1 0.1-0.1z"/>
				<path id="&lt;Path&gt;" class="s0" d="m262.9 181.5c-3.5 16.8-12.3 35.5-23.4 49.8-9.2 11.9-21.7 23.1-33.1 29.8-16.4 9.6-32.7 14.6-51.6 15.7q-3.5 0.2-7.2 0.2h-0.1q-3.7 0-7.2-0.2c-18.9-1.2-35.2-6.1-51.5-15.8-11.5-6.7-24-18-33.2-29.9-11-14.3-19.7-33-23.3-49.9-0.6-3.1-0.6-3.3 0.1-3.4 1.8-0.2 28.5 0 28.9 0.2 0.5 0.3 1.1 0.9 3.3 3 16.1 16.4 42.7 20.7 65.6 10.6 1.2-0.5 2.1-0.9 2.2-0.8 0.2 0.1 4.4 6.3 6.1 9.2 0.6 0.9 1.7 2.7 2.5 4 0.8 1.2 2.1 3.5 3 4.9 1.2 2.2 2.9 4.9 3.6 6 0.7-1.1 2.4-3.8 3.6-6 0.9-1.4 2.2-3.7 3-4.9 0.8-1.3 1.9-3.1 2.5-4 1.7-2.9 5.9-9.1 6.1-9.2 0.1 0 1.1 0.3 2.2 0.8 22.9 10.1 49.6 5.9 65.7-10.4 2.1-2.2 2.8-2.8 3.2-3 0.5-0.3 27.1-0.4 29-0.2 0.7 0.1 0.7 0.3 0 3.5z"/>
				<path id="&lt;Path&gt;" class="s0" d="m253.3 35.1c-0.4 0.4-1.1 1.3-1.6 2-4.1 5.6-9.5 11.7-15.2 17.2-4.4 4.2-7 6.6-10.5 9.5-3.5 3-8 6.1-13.6 9.5-2.1 1.3-10.6 5.8-12.1 6.5-1.4 0.5-3.9 1.7-5 2.2-0.5 0.2-1.5 0.7-2.3 1.1-9.4 4.6-14.7 8.1-21.2 14-5.9 5.4-13.6 15.3-21.5 27.8-1.8 2.8-2.2 3.6-2.6 3.3-0.4 0.3-0.9-0.5-2.7-3.3-7.8-12.5-15.5-22.4-21.4-27.8-6.4-6-11.7-9.5-21.2-14.1-0.7-0.4-1.8-0.9-2.3-1.1-1-0.5-3.6-1.7-4.9-2.3-1.5-0.6-10-5.1-12.2-6.4-5.6-3.4-10-6.6-13.6-9.6-3.4-2.8-6-5.3-10.4-9.4-5.7-5.6-11.1-11.7-15.1-17.3-0.6-0.7-1.3-1.6-1.6-2-0.7-0.8-0.7-0.7-0.4-3.1 0.5-3.8 0-3.7 3.8-0.7 1 0.8 2.6 2.1 3.7 2.9 1.1 0.9 2.4 1.9 2.9 2.4 0.5 0.4 2.3 1.8 3.8 3.1 1.6 1.2 3.7 2.9 4.7 3.8 1 0.8 3 2.5 4.5 3.7 13.6 11.3 24.3 17.5 40.7 23.4 17.1 6.1 29.1 14.5 39.1 27.2 1.3 1.7 2.1 2.8 2.6 3.2q0 0 0 0c0.5-0.4 1.3-1.5 2.7-3.2 10-12.7 21.9-21 39-27.1 16.5-5.9 27.2-12 40.8-23.3 1.5-1.3 3.5-2.9 4.5-3.8 1-0.8 3.1-2.5 4.7-3.8 1.6-1.2 3.3-2.6 3.8-3.1 0.6-0.4 1.9-1.4 2.9-2.3 1.1-0.8 2.8-2.1 3.8-2.9 3.7-3 3.2-3 3.7 0.7 0.4 2.4 0.4 2.3-0.3 3.1z"/>
				<path id="&lt;Path&gt;" class="s2" d="m264.2 172c-0.2 1.4-0.2 1.6-0.5 1.7-0.6 0.3-26.2 0.1-26.1-0.2 0.1-0.1 0.4-0.6 0.7-1.1 5.2-8.2 7.8-17.2 8.4-29 0.5-8.3-2.2-19.6-6.5-27.7-4.1-7.6-7.7-12.2-16.5-21.2-1.9-2-1.5-1.9-4-0.5-4.6 2.8-8.1 4.1-16.9 6.7-11.5 3.2-16.7 5.4-22.5 9.4-9.1 6.3-16.1 13.8-24.2 26-0.5 0.8-1.5 2.2-2 3.1-0.6 0.8-1.7 2.5-2.5 3.8-0.8 1.2-2 3.2-2.7 4.3l-1.2 2-1.3-2c-0.7-1.1-1.9-3.1-2.7-4.3-0.7-1.3-1.8-3-2.4-3.8-0.6-0.9-1.5-2.3-2.1-3.1-8.1-12.2-15.1-19.8-24.1-26-5.8-4.1-11-6.2-22.4-9.5-8.9-2.6-12.4-4-17-6.7-2.4-1.5-2.1-1.5-4 0.4-8.8 9-12.4 13.6-16.5 21.3-4.3 8.1-7 19.3-6.6 27.6 0.6 11.8 3.2 20.8 8.4 29 0.3 0.5 0.6 1 0.7 1.2 0.1 0.2-25.5 0.4-26.2 0.1-0.2-0.1-0.2-0.3-0.5-1.7-1.9-13.1-1.2-29.7 2-43.7 1.1-5.2 3.9-13.6 6-18.6 4.5-10.3 8.6-17.5 15.8-27.6 1.4-1.8 1.3-1.6 0.2-3.4-7.6-11.5-12-22.7-13.3-33.9-0.3-2.3-0.3-9.8 0-9.5 0 0 0.3 0.4 0.6 0.8 1.7 2.1 4.6 6.5 5.3 7.8 0.1 0.4 0.7 1.3 1.2 2 0.5 0.8 1.5 2.2 2.2 3.2 6.5 9.7 15.1 18.1 25.1 24.8 7 4.6 13.4 8 22.4 12.1 14.6 6.5 23 13.3 33.6 27 3.4 4.4 9 13.1 12.4 19.4 1.6 2.8 2.9 4.8 3 4.8q0.1 0 0.2-0.1 0.1 0.1 0.1 0.1c0.2 0 1.4-2 3-4.8 3.5-6.3 9.1-15 12.5-19.3 10.6-13.8 19.1-20.6 33.6-27 9.1-4.1 15.5-7.5 22.4-12.1 10.1-6.6 18.7-15 25.3-24.7 0.6-1 1.6-2.4 2.1-3.2 0.5-0.7 1.1-1.6 1.3-2 0.6-1.3 3.6-5.7 5.2-7.8 0.3-0.4 0.6-0.7 0.7-0.8 0.2-0.3 0.2 7.2-0.1 9.5-1.3 11.2-5.7 22.4-13.3 33.8-1.2 1.8-1.2 1.7 0.1 3.5 7.2 10.1 11.3 17.3 15.8 27.6 2.1 5.1 4.8 13.4 6 18.6 3.1 14 3.8 30.6 1.8 43.7z"/>
				<path id="&lt;Path&gt;" class="s0" d="m225 46.4c0 0.6-7.3 5.6-13 8.9-3 1.7-2.6 1.7-6-0.4-13.4-8.4-25.4-13.2-38.6-15.5-6.5-1.2-13.1-1.8-19.6-1.7q-0.2 0-0.3 0c-6.4-0.1-12.9 0.5-19.4 1.6-13.2 2.3-25.2 7.1-38.6 15.5-3.4 2.1-3 2.1-6 0.3-5.7-3.2-13-8.3-13-8.9 0-1 12.4-9.8 19.4-13.8 3-1.7 5.3-3 5.4-3 0 0 0.5-0.3 1.1-0.6 1.4-0.6 1.5-0.7 3.1-1.4 0.7-0.3 1.4-0.7 1.6-0.8 0.8-0.3 3.6-1.5 4.9-2 2.3-0.9 3.7-1.4 6.7-2.3 0.5-0.2 1.1-0.4 1.3-0.4 5.3-1.7 14.9-3.6 21.3-4.2 1-0.1 2.4-0.2 3-0.3 2.9-0.3 6-0.4 9.2-0.4h0.6c3.2 0 6.3 0.2 9.1 0.4 0.7 0.1 2.1 0.2 3.1 0.3 6.4 0.6 16 2.5 21.2 4.2 0.2 0.1 0.8 0.3 1.4 0.5 3 0.9 4.4 1.4 6.7 2.3 1.2 0.5 4.1 1.7 4.9 2 0.1 0.1 0.9 0.5 1.6 0.8 1.6 0.7 1.7 0.7 3 1.4 0.6 0.3 1.2 0.6 1.2 0.6 0 0 2.4 1.3 5.4 3 6.9 4 19.3 12.9 19.3 13.9z"/>
				<path id="&lt;Path&gt;" class="s1" d="m147.7 158.1q0-0.1 0-0.1 0 0 0 0.1z"/>
				<path id="&lt;Compound Path&gt;" fill-rule="evenodd" class="s0" d="m226.7 149.2q-0.3 2.3-0.9 4.6-0.6 2.3-1.5 4.4-2.2 5.1-6.1 9.3-0.3 0.2-0.5 0.5c-3.3 3.5-7.3 5.7-11.6 7.6-2.3 0.6-4.5 1.4-6.8 1.1-0.4-1.5-0.2-3-0.3-4.6 0-0.7 0.4-1.8-0.5-2q-0.4-0.1-0.9-0.1-0.4 0-0.8 0.1c-0.9 0.2-0.5 1.3-0.5 2-0.1 1.6 0.1 3.1-0.3 4.6-2.4 0.3-4.6-0.5-6.8-1.1-4.3-1.9-8.3-4.2-11.6-7.7-5.1-5.2-8.1-11.4-8.9-18.8q-0.2-1.4 0.3-2 0.6-0.7 2.3-0.6c0.9 0.1 1.8 0.1 2.8 0.2 1 0.1 1.4-0.3 1.4-1.4 0-1.2-0.4-1.7-1.5-1.6-1.2 0.1-2.5-0.1-3.7 0.1-1.4 0.1-1.9-0.5-1.7-2 0.1-0.5 0.1-1.1 0.2-1.6q0.6-3.1 1.6-5.8c2.2-5.7 5.8-10.4 10.6-14.3q1.6-1.4 3.4-2.4c3.4-2 7.2-3.2 11.3-3.7 0.9-0.1 1.2 0.3 1.1 1.2-0.1 1.6-0.2 3.2-0.3 4.9 0 0.5 0 1 0.4 1.3q0.2 0.1 0.6 0.1 0.1 0 0.2 0 0.1 0 0.2 0 0.4 0 0.6-0.1c0.4-0.3 0.4-0.8 0.4-1.3q-0.1-2.5-0.3-4.9c-0.1-0.9 0.2-1.3 1.1-1.2 5.4 0.7 10.4 2.5 14.7 6.1q1.2 1 2.3 2.1c5.1 4.8 8.5 10.7 9.8 18 0.1 0.5 0.2 1 0.2 1.4q0 0.2 0 0.3c0.3 1.4-0.2 2-1.7 1.9-0.8-0.1-1.5 0-2.3 0q-0.7 0-1.3 0c-1.1-0.1-1.4 0.3-1.5 1.2q0 0.2 0 0.3c0 1.2 0.4 1.6 1.4 1.5 0.9-0.1 1.9-0.1 2.8-0.2 2-0.2 2.8 0.5 2.6 2.6zm-2.3 0.5q-0.1-0.1-0.1-0.1c-0.1-0.3-0.2-0.6-0.4-0.8-0.8-0.7-2-0.2-2.9-0.1-1 0.1-2.2 0-2.9-0.8-0.4-0.5-0.6-1.2-0.7-1.9q0-0.1 0-0.1c0-2.3 0.9-4.4 3.2-4.3q0 0 0.1 0 0.2 0 0.4 0.1c0.6 0 1.1 0.2 1.7 0.1 3.1-0.4 1-4.4 0.4-6q-0.8-2.2-1.9-4.2c-1.7-3.1-3.9-5.9-6.5-8.2q-0.7-0.5-1.3-1.1c-2.4-1.9-5-3.5-7.9-4.5-0.8-0.3-4.9-2-4.7 0 0 0.7 0.3 1.5 0.2 2.3-0.1 1.2-0.6 2.4-1.6 3.1-0.6 0.4-1.2 0.5-1.8 0.5-0.6 0-1.3-0.1-1.8-0.5-1-0.7-1.5-1.9-1.6-3.1-0.1-0.8 0.2-1.6 0.2-2.3 0.2-2-3.9-0.3-4.7-0.1q-2 0.7-3.8 1.8c-1.4 0.8-2.8 1.8-4.1 2.8-3.2 2.5-5.9 5.7-7.9 9.3q-1.1 2-1.8 4.1-0.1 0.1-0.1 0.3c-0.7 1.7-2.5 5.4 0.5 5.7 0.5 0.1 1.1 0 1.7-0.1 2.7-0.5 3.7 1.8 3.6 4.4 0 0.7-0.2 1.3-0.7 1.8-0.7 0.9-1.9 1-2.9 0.9-0.9-0.1-2-0.6-2.8 0q-0.1 0.1-0.1 0.1-0.3 0.3-0.4 0.7 0 0.1 0 0.1c-0.7 2.9 1.4 5.6 2.5 8 1.3 3.1 3.1 5.9 5.4 8.2 3.3 3.6 7.5 6.2 11.9 8 0.7 0.2 1.4 0.5 2.1 0.6 0.2 0 0.4 0 0.5-0.1 0.9-0.3 0.6-1.6 0.7-2.3q0.1-1.3 0.4-2.6c0.1-0.3 0.2-0.7 0.4-1 0.5-1 1.6-1.4 2.7-1.3 1.2-0.1 2.3 0.3 2.8 1.3 0.2 0.3 0.3 0.7 0.4 1q0.3 1.3 0.4 2.6c0.1 0.7-0.2 2 0.6 2.4 0.2 0 0.4 0 0.6 0 0.7-0.1 1.4-0.3 2.1-0.6 4.4-1.8 8.6-4.3 11.9-7.9q0.1-0.1 0.2-0.2c2.2-2.4 3.9-5.1 5.2-8 1.1-2.4 3.2-5.2 2.6-8z"/>
				<path id="&lt;Path&gt;" class="s0" d="m215.6 145.4c0 10.4-8.1 18.8-18 18.8-10 0-18-8.5-18-18.8 0-10.4 8.1-18.8 18-18.8 9.9 0 18 8.4 18 18.8z"/>
				<path id="&lt;Compound Path&gt;" fill-rule="evenodd" class="s0" d="m125.9 149.1q-0.2 2.4-0.8 4.6-0.6 2.3-1.5 4.4-2.2 5.1-6.1 9.3-0.3 0.2-0.5 0.5c-3.4 3.5-7.3 5.7-11.6 7.6-2.3 0.6-4.5 1.4-6.9 1.1-0.3-1.5-0.1-3-0.2-4.6 0-0.7 0.4-1.7-0.5-2q-0.4-0.1-0.9-0.1-0.4 0-0.8 0.1c-0.9 0.2-0.5 1.3-0.5 2-0.1 1.6 0.1 3.1-0.3 4.6-2.4 0.3-4.6-0.5-6.8-1.1-4.3-1.9-8.3-4.2-11.6-7.7-5.1-5.2-8.1-11.4-8.9-18.8q-0.2-1.4 0.3-2 0.6-0.7 2.2-0.6c1 0.1 1.9 0.1 2.8 0.2 1.1 0.1 1.5-0.3 1.5-1.4-0.1-1.2-0.4-1.7-1.5-1.6-1.3 0.1-2.5-0.1-3.7 0.1-1.4 0.1-1.9-0.5-1.7-2 0.1-0.5 0.1-1.1 0.2-1.6q0.6-3.1 1.6-5.8c2.2-5.7 5.8-10.4 10.5-14.3q1.7-1.4 3.4-2.4c3.5-2 7.3-3.2 11.4-3.7 0.9-0.1 1.2 0.3 1.1 1.2-0.1 1.6-0.2 3.2-0.3 4.9 0 0.5-0.1 1 0.4 1.3q0.2 0.1 0.6 0.1 0.1 0 0.2 0 0.1 0 0.2 0 0.4 0 0.6-0.1c0.4-0.3 0.4-0.8 0.3-1.3q-0.1-2.5-0.2-4.9c-0.1-0.9 0.2-1.3 1.1-1.2 5.4 0.7 10.4 2.5 14.7 6.1q1.2 1 2.3 2.1c5.1 4.8 8.5 10.8 9.8 18 0.1 0.5 0.1 1 0.2 1.4q0 0.2 0 0.3c0.2 1.4-0.3 2-1.7 1.9-0.8-0.1-1.6 0-2.3 0q-0.7 0-1.3 0c-1.1-0.1-1.5 0.3-1.5 1.2q0 0.2-0.1 0.4c0 1.1 0.4 1.5 1.5 1.4 0.9-0.1 1.8-0.1 2.8-0.2 2-0.2 2.8 0.5 2.5 2.6zm-2.3 0.5q0-0.1 0-0.1c-0.1-0.3-0.2-0.6-0.5-0.8-0.7-0.7-1.9-0.2-2.8-0.1-1 0.1-2.2 0-2.9-0.8-0.5-0.5-0.7-1.2-0.7-1.9q0-0.1 0-0.1c-0.1-2.3 0.9-4.4 3.2-4.3q0 0 0 0 0.2 0 0.5 0.1c0.5 0.1 1.1 0.2 1.7 0.1 3-0.4 1-4.4 0.4-6q-0.8-2.2-1.9-4.2c-1.7-3.1-3.9-5.9-6.6-8.2q-0.6-0.5-1.2-1.1c-2.4-1.9-5-3.5-7.9-4.5-0.8-0.3-4.9-2-4.7 0 0 0.7 0.3 1.5 0.2 2.3-0.2 1.2-0.6 2.5-1.7 3.1-0.5 0.4-1.1 0.6-1.7 0.5-0.6 0-1.3-0.1-1.8-0.5-1-0.7-1.5-1.9-1.6-3.1-0.1-0.8 0.2-1.6 0.2-2.3 0.2-2-3.9-0.3-4.7-0.1q-2 0.7-3.8 1.8c-1.4 0.8-2.8 1.8-4.1 2.8-3.2 2.5-5.9 5.7-7.9 9.3q-1.1 2-1.9 4.1 0 0.1-0.1 0.3c-0.7 1.7-2.4 5.4 0.6 5.8 0.5 0 1.1-0.1 1.6-0.2 2.8-0.5 3.8 1.8 3.7 4.4 0 0.7-0.2 1.3-0.7 1.8-0.7 0.9-1.9 1-2.9 0.9-0.9-0.1-2.1-0.6-2.8 0q-0.1 0.1-0.2 0.1-0.2 0.3-0.3 0.7 0 0.1 0 0.1c-0.7 2.9 1.4 5.6 2.5 8.1 1.3 3 3.1 5.8 5.3 8.1 3.4 3.6 7.6 6.2 12 8 0.7 0.2 1.3 0.5 2.1 0.6 0.1 0 0.3 0 0.5-0.1 0.9-0.3 0.6-1.6 0.6-2.3q0.2-1.3 0.5-2.6c0.1-0.3 0.2-0.7 0.3-1 0.6-1 1.7-1.4 2.8-1.3 1.2 0 2.2 0.4 2.8 1.3 0.2 0.3 0.3 0.7 0.4 1q0.3 1.3 0.4 2.6c0.1 0.7-0.2 2 0.6 2.4 0.2 0 0.4 0 0.6 0 0.7-0.1 1.4-0.3 2-0.6 4.5-1.8 8.7-4.3 12-7.9q0.1-0.1 0.2-0.2c2.1-2.4 3.9-5.1 5.2-8 1.1-2.4 3.2-5.2 2.5-8z"/>
				<path id="&lt;Path&gt;" class="s0" d="m114.9 145.3c-0.1 10.4-8.1 18.8-18 18.8-10 0-18-8.5-18-18.8 0-10.4 8.1-18.8 18-18.8 9.9 0 18 8.4 18 18.8z"/>
				<path id="SUCCESS BEYOND SOLUTIONS" class="s1" aria-label="SUCCESS BEYOND SOLUTIONS"  d="m335.1 254.8q0-1.1-0.8-1.7-0.7-0.7-1.9-1.2-1.2-0.6-2.6-1.2-1.3-0.5-2.5-1.4-1.2-0.8-2-2.1-0.7-1.2-0.7-3.2 0-1.7 0.5-2.9 0.6-1.3 1.6-2.1 1.1-0.8 2.5-1.2 1.4-0.4 3.2-0.4 2 0 3.8 0.3 1.8 0.4 2.9 1l-1.4 3.8q-0.7-0.4-2.2-0.8-1.4-0.4-3.1-0.4-1.6 0-2.5 0.6-0.8 0.7-0.8 1.7 0 1 0.8 1.7 0.8 0.7 1.9 1.2 1.2 0.6 2.6 1.2 1.4 0.6 2.5 1.4 1.2 0.9 2 2.1 0.8 1.2 0.8 3.1 0 1.8-0.7 3.2-0.6 1.3-1.7 2.2-1.1 0.9-2.7 1.3-1.5 0.5-3.4 0.5-2.5 0-4.4-0.5-1.9-0.5-2.8-0.9l1.5-3.9q0.4 0.2 0.9 0.4 0.6 0.3 1.4 0.5 0.7 0.2 1.5 0.3 0.8 0.1 1.7 0.1 2 0 3-0.6 1.1-0.7 1.1-2.1zm26.8-2.3v-14.7h4.3v15q0 2.2-0.6 3.9-0.6 1.6-1.7 2.6-1.1 1.1-2.6 1.6-1.5 0.5-3.3 0.5-8.8 0-8.8-8v-15.6h4.5v14.7q0 1.3 0.2 2.3 0.3 0.9 0.8 1.5 0.6 0.6 1.4 0.8 0.8 0.3 1.8 0.3 2.1 0 3-1.2 1-1.2 1-3.7zm29.5 3.8l0.9 3.7q-1 0.8-2.7 1.1-1.6 0.4-3.3 0.4-2.1 0-4-0.7-1.9-0.6-3.3-2-1.4-1.5-2.3-3.8-0.8-2.3-0.8-5.6 0-3.4 0.9-5.7 1-2.3 2.5-3.7 1.5-1.4 3.4-2 1.8-0.6 3.7-0.6 1.9 0 3.3 0.2 1.4 0.3 2.3 0.7l-0.9 3.8q-0.8-0.4-1.8-0.5-1.1-0.2-2.5-0.2-2.8 0-4.5 2-1.6 1.9-1.6 6 0 1.8 0.4 3.3 0.4 1.5 1.2 2.5 0.8 1 2 1.6 1.2 0.6 2.8 0.6 1.5 0 2.5-0.3 1-0.3 1.8-0.8zm24 0l0.9 3.7q-1 0.8-2.7 1.1-1.6 0.4-3.3 0.4-2.1 0-4-0.7-1.8-0.6-3.3-2-1.4-1.5-2.2-3.8-0.9-2.3-0.9-5.6 0-3.4 1-5.7 0.9-2.3 2.4-3.7 1.5-1.4 3.4-2 1.8-0.6 3.7-0.6 2 0 3.3 0.2 1.4 0.3 2.3 0.7l-0.9 3.8q-0.8-0.4-1.8-0.5-1-0.2-2.5-0.2-2.8 0-4.5 2-1.6 1.9-1.6 6 0 1.8 0.4 3.3 0.4 1.5 1.2 2.5 0.8 1 2 1.6 1.2 0.6 2.8 0.6 1.5 0 2.5-0.3 1-0.3 1.8-0.8zm10.4 4.7v-23.2h13.7v4.1h-9.2v5.4h8.4v4h-8.4v5.7h9.3v4zm33.9-6.2q0-1.1-0.8-1.7-0.7-0.7-1.9-1.2-1.2-0.6-2.6-1.2-1.3-0.5-2.5-1.4-1.2-0.8-2-2.1-0.7-1.2-0.7-3.2 0-1.7 0.5-2.9 0.6-1.3 1.6-2.1 1.1-0.8 2.5-1.2 1.4-0.4 3.2-0.4 2 0 3.8 0.3 1.8 0.4 2.9 1l-1.4 3.8q-0.7-0.4-2.2-0.8-1.4-0.4-3.1-0.4-1.6 0-2.5 0.6-0.8 0.7-0.8 1.7 0 1 0.8 1.7 0.8 0.7 1.9 1.2 1.2 0.6 2.6 1.2 1.3 0.6 2.5 1.4 1.2 0.9 2 2.1 0.8 1.2 0.8 3.1 0 1.8-0.7 3.2-0.6 1.3-1.7 2.2-1.1 0.9-2.7 1.3-1.5 0.5-3.4 0.5-2.5 0-4.4-0.5-1.9-0.5-2.8-0.9l1.5-3.9q0.4 0.2 0.9 0.4 0.6 0.3 1.3 0.5 0.8 0.2 1.6 0.3 0.8 0.1 1.7 0.1 2 0 3-0.6 1.1-0.7 1.1-2.1zm24.2 0q0-1.1-0.8-1.7-0.8-0.7-2-1.2-1.1-0.6-2.5-1.2-1.4-0.5-2.6-1.4-1.1-0.8-1.9-2.1-0.8-1.2-0.8-3.2 0-1.7 0.6-2.9 0.5-1.3 1.6-2.1 1-0.8 2.4-1.2 1.5-0.4 3.2-0.4 2 0 3.8 0.3 1.8 0.4 3 1l-1.5 3.8q-0.7-0.4-2.1-0.8-1.5-0.4-3.2-0.4-1.6 0-2.4 0.6-0.9 0.7-0.9 1.7 0 1 0.8 1.7 0.8 0.7 2 1.2 1.1 0.6 2.5 1.2 1.4 0.6 2.6 1.4 1.1 0.9 1.9 2.1 0.8 1.2 0.8 3.1 0 1.8-0.6 3.2-0.6 1.3-1.8 2.2-1 0.9-2.6 1.3-1.6 0.5-3.5 0.5-2.5 0-4.3-0.5-1.9-0.5-2.8-0.9l1.4-3.9q0.4 0.2 1 0.4 0.6 0.3 1.3 0.5 0.7 0.2 1.5 0.3 0.8 0.1 1.7 0.1 2 0 3.1-0.6 1.1-0.7 1.1-2.1zm44.7-11.6q0 0.9-0.2 1.8-0.2 0.8-0.7 1.5-0.5 0.7-1.3 1.3-0.8 0.5-2 0.8v0.2q1 0.2 1.9 0.6 0.9 0.4 1.6 1 0.7 0.7 1 1.7 0.4 1 0.4 2.4 0 1.8-0.7 3.1-0.8 1.3-2.1 2.1-1.3 0.8-2.9 1.2-1.6 0.4-3.3 0.4-0.6 0-1.5 0-0.8 0-1.9 0-1-0.1-2-0.2-1-0.1-1.9-0.3v-22.8q0.6-0.1 1.4-0.2 0.9-0.1 1.8-0.2 0.9 0 1.9-0.1 1 0 1.9 0 1.6 0 3.2 0.3 1.5 0.2 2.7 0.8 1.2 0.7 2 1.8 0.7 1.1 0.7 2.8zm-8.3 14.4q0.8 0 1.6-0.2 0.8-0.2 1.4-0.6 0.6-0.4 1-1.1 0.3-0.6 0.3-1.4 0-1.1-0.4-1.8-0.4-0.6-1.1-0.9-0.7-0.4-1.6-0.5-0.9-0.1-1.7-0.1h-2.4v6.4q0.1 0.1 0.5 0.1 0.4 0 0.8 0.1 0.4 0 0.8 0 0.5 0 0.8 0zm-2.9-10h1.4q0.5 0 1.1-0.1 0.6 0 1-0.1 1.3-0.4 2.2-1.2 0.9-0.7 0.9-2 0-0.9-0.3-1.5-0.4-0.5-0.9-0.9-0.6-0.3-1.3-0.4-0.7-0.1-1.4-0.1-0.9 0-1.6 0-0.7 0-1.1 0.1zm21.8 13.4v-23.1h13.7v4h-9.2v5.4h8.4v4h-8.4v5.7h9.4v4zm29.4 0v-8.6l-7.6-14.5h5.4l4.2 8.7 0.5 2.4h0.1l0.5-2.5 4.1-8.6h4.9l-7.6 14.5v8.6zm18.4-11.6q0-5.8 2.5-8.9 2.5-3.1 7.3-3.1 2.5 0 4.3 0.9 1.9 0.8 3.1 2.4 1.2 1.6 1.8 3.8 0.6 2.2 0.6 4.9 0 5.8-2.6 9-2.5 3.1-7.2 3.1-2.5 0-4.4-0.9-1.8-0.8-3.1-2.4-1.2-1.6-1.8-3.8-0.5-2.2-0.5-5zm4.7 0q0 1.8 0.3 3.3 0.3 1.4 0.9 2.5 0.6 1.1 1.6 1.6 1 0.6 2.3 0.6 2.4 0 3.7-1.8 1.3-1.9 1.3-6.2 0-1.6-0.3-3.1-0.2-1.5-0.8-2.6-0.6-1-1.6-1.6-0.9-0.7-2.3-0.7-2.4 0-3.8 2-1.3 1.9-1.3 6zm39.2 11.8l-8.7-12.3-1.8-3.6h-0.2l0.6 3.6v12.1h-4.3v-23.3h3.3l8.7 12.3 1.8 3.6h0.1l-0.5-3.6v-12.1h4.3v23.3zm13.9-0.2v-23.1q0.7-0.1 1.6-0.2 0.9-0.1 1.8-0.1 0.9 0 1.8 0 0.9-0.1 1.6-0.1 3 0 5.2 0.9 2.2 0.9 3.6 2.4 1.3 1.6 1.9 3.7 0.7 2.2 0.7 4.7 0 2.4-0.6 4.6-0.6 2.2-2 3.8-1.4 1.7-3.7 2.8-2.2 1-5.6 1-0.5 0-1.4-0.1-0.9 0-1.8 0-0.9-0.1-1.8-0.1-0.9-0.1-1.3-0.2zm7.1-19.4q-0.7 0-1.5 0-0.7 0-1.1 0.1v15.5q0.2 0 0.5 0.1 0.3 0 0.7 0 0.3 0 0.7 0 0.3 0 0.5 0 1.9 0 3.1-0.6 1.3-0.7 2.1-1.8 0.7-1.2 1-2.6 0.3-1.5 0.3-3.1 0-1.3-0.3-2.7-0.2-1.4-0.9-2.5-0.7-1-2-1.7-1.2-0.7-3.1-0.7zm45.5 13.2q0-1.1-0.8-1.7-0.8-0.7-2-1.2-1.1-0.6-2.5-1.1-1.4-0.6-2.6-1.5-1.1-0.8-1.9-2.1-0.8-1.2-0.8-3.2 0-1.7 0.6-2.9 0.5-1.3 1.6-2.1 1-0.8 2.4-1.2 1.5-0.4 3.2-0.4 2 0 3.8 0.4 1.8 0.3 3 1l-1.5 3.8q-0.7-0.5-2.1-0.9-1.5-0.4-3.2-0.4-1.6 0-2.4 0.7-0.9 0.6-0.9 1.6 0 1 0.8 1.7 0.8 0.7 2 1.2 1.2 0.6 2.5 1.2 1.4 0.6 2.6 1.4 1.1 0.9 1.9 2.1 0.8 1.2 0.8 3.1 0 1.9-0.6 3.2-0.6 1.3-1.7 2.2-1.1 0.9-2.7 1.3-1.6 0.5-3.5 0.5-2.4 0-4.3-0.5-1.9-0.4-2.8-0.9l1.4-3.9q0.4 0.2 1 0.4 0.6 0.3 1.3 0.5 0.7 0.2 1.5 0.3 0.8 0.1 1.7 0.1 2 0 3.1-0.6 1.1-0.7 1.1-2.1zm13.4-5.4q0-5.8 2.5-8.9 2.6-3.1 7.3-3.1 2.5 0 4.4 0.9 1.8 0.8 3 2.4 1.3 1.6 1.8 3.8 0.6 2.2 0.6 4.9 0 5.8-2.5 9-2.6 3.1-7.3 3.1-2.5 0-4.3-0.9-1.9-0.8-3.1-2.4-1.2-1.6-1.8-3.8-0.6-2.2-0.6-5zm4.8 0q0 1.8 0.3 3.3 0.3 1.4 0.9 2.5 0.6 1.1 1.5 1.6 1 0.6 2.3 0.6 2.4 0 3.8-1.8 1.3-1.9 1.3-6.2 0-1.6-0.3-3.1-0.3-1.5-0.9-2.6-0.6-1-1.5-1.6-1-0.7-2.4-0.7-2.4 0-3.7 2-1.3 1.9-1.3 6zm39.4 7.6v4h-14.7v-23.1h4.5v19.1zm21.6-4.5v-14.6h4.3v14.9q0 2.3-0.6 3.9-0.6 1.6-1.7 2.7-1 1-2.6 1.5-1.5 0.5-3.3 0.5-8.8 0-8.8-8v-15.5h4.5v14.6q0 1.3 0.3 2.3 0.2 0.9 0.8 1.5 0.5 0.6 1.3 0.8 0.8 0.3 1.8 0.3 2.1 0 3-1.2 1-1.1 1-3.7zm31.2-14.6v4h-6.8v19.1h-4.5v-19.1h-6.8v-4zm9.5 23.1v-23.1h4.5v23.1zm14.8-11.6q0-5.8 2.6-8.9 2.5-3.1 7.3-3.1 2.4 0 4.3 0.9 1.8 0.8 3.1 2.4 1.2 1.6 1.8 3.8 0.6 2.2 0.6 4.9 0 5.8-2.6 9-2.5 3.1-7.2 3.1-2.6 0-4.4-0.9-1.9-0.8-3.1-2.4-1.2-1.6-1.8-3.8-0.6-2.2-0.6-5zm4.8 0q0 1.8 0.3 3.3 0.3 1.4 0.9 2.5 0.6 1.1 1.6 1.6 0.9 0.6 2.3 0.6 2.4 0 3.7-1.8 1.3-1.9 1.3-6.2 0-1.6-0.3-3.1-0.2-1.5-0.8-2.6-0.6-1-1.6-1.6-0.9-0.7-2.3-0.7-2.5 0-3.8 2-1.3 1.9-1.3 6zm39.2 11.8l-8.7-12.3-1.8-3.6h-0.2l0.5 3.6v12.1h-4.3v-23.3h3.4l8.7 12.3 1.8 3.6h0.1l-0.5-3.6v-12.1h4.3v23.3zm23.9-6.4q0-1.1-0.8-1.7-0.8-0.7-2-1.2-1.1-0.6-2.5-1.1-1.4-0.6-2.6-1.5-1.1-0.8-1.9-2.1-0.8-1.2-0.8-3.2 0-1.7 0.6-2.9 0.6-1.3 1.6-2.1 1-0.8 2.5-1.2 1.4-0.4 3.1-0.4 2.1 0 3.8 0.4 1.8 0.3 3 1l-1.4 3.8q-0.8-0.5-2.2-0.9-1.5-0.4-3.2-0.4-1.5 0-2.4 0.7-0.8 0.6-0.8 1.6 0 1 0.7 1.7 0.8 0.7 2 1.2 1.2 0.6 2.5 1.2 1.4 0.6 2.6 1.4 1.2 0.9 1.9 2.1 0.8 1.2 0.8 3.1 0 1.9-0.6 3.2-0.6 1.3-1.7 2.2-1.1 0.9-2.7 1.3-1.6 0.5-3.4 0.5-2.5 0-4.4-0.5-1.9-0.4-2.8-0.9l1.5-3.9q0.3 0.2 0.9 0.4 0.6 0.3 1.3 0.5 0.7 0.2 1.5 0.3 0.9 0.1 1.7 0.1 2 0 3.1-0.6 1.1-0.7 1.1-2.1z"/>
			</g>
		</g>
		<g id="&lt;Group&gt;">
			<g id="&lt;Group&gt;">
			</g>
			<g id="&lt;Group&gt;">
			</g>
			<g id="&lt;Group&gt;">
				<g id="&lt;Group&gt;">
				</g>
				<g id="&lt;Group&gt;">
				</g>
			</g>
		</g>
		<g id="&lt;Group&gt;">
			<g id="&lt;Group&gt;">
			</g>
			<g id="&lt;Group&gt;">
			</g>
		</g>
		<g id="&lt;Group&gt;">
			<g id="&lt;Group&gt;">
				<g id="&lt;Group&gt;">
				</g>
			</g>
		</g>
		<g id="&lt;Group&gt;">
			<g id="&lt;Group&gt;">
				<g id="&lt;Group&gt;">
				</g>
				<g id="&lt;Group&gt;">
				</g>
			</g>
		</g>
		<g id="&lt;Group&gt;">
			<g id="&lt;Group&gt;">
				<g id="&lt;Group&gt;">
				</g>
				<g id="&lt;Group&gt;">
				</g>
			</g>
		</g>
	</g>
</svg>